<?xml version="1.0" encoding="UTF-8"?><svg id="base" xmlns="http://www.w3.org/2000/svg" width="231.3" height="204.98" viewBox="0 0 231.3 204.98"><path d="M176.26,204.98c-27.52,0-36.69-29.11-41.47-50.65-19.54,23.13-48.65,50.65-81.35,50.65C18.34,204.98,0,174.67,0,142.77,0,108.87,11.96,77.76,31.9,50.25,49.85,24.73,76.17,0,109.67,0c41.07,0,47.06,43.07,48.25,74.97,13.16-21.14,23.53-43.87,31.11-67.4h37.09c-18.74,39.48-39.48,78.16-64.6,115.65,0,8.77,2.39,49.85,15.95,49.85,15.15,0,20.34-23.53,22.33-35.49h31.5c-7.18,26.32-21.14,67.4-55.03,67.4ZM125.62,54.24c-2.39-11.56-7.98-23.53-21.14-23.53-15.95,0-32.3,14.36-41.87,27.12-17.55,23.13-28.71,52.24-28.71,82.15,0,17.15,5.18,33.1,24.73,33.1,23.53,0,48.65-23.53,61.01-41.87,1.59-1.2,11.17-14.36,11.17-16.75,0-19.94-1.2-40.68-5.18-60.22Z"/></svg>