<?xml version="1.0" encoding="UTF-8"?><svg id="base" xmlns="http://www.w3.org/2000/svg" width="1742.21" height="512" viewBox="0 0 1742.21 512"><defs><style>.cls-1{fill:#fff;}.cls-2{fill:#dcdddd;}.cls-3{fill:#002f55;}</style></defs><g id="icon"><rect id="icon-base" class="cls-3" width="512" height="512" rx="112.02" ry="112.02"/><g id="mattar"><path class="cls-1" d="M415.78,277.01c0-1.06-.04-2.11-.11-3.15v6.24c.07-1.01,.11-2.03,.11-3.09Z"/><path class="cls-1" d="M285.62,324.11h-23.95c8.15,0,16.15,.02,23.95,0Z"/><path class="cls-1" d="M415.67,273.82c-3.01-47.75-73.34-85.95-159.67-85.95s-159.78,39.91-159.78,89.14,68.49,47.17,154.11,47.1h-.14l165.48-50.29Z"/><path class="cls-1" d="M415.67,273.82h0s0,.02,0,.04v-.04Z"/><path class="cls-1" d="M250.33,324.11h11.34c-1.88,0-3.77,0-5.67,0s-3.79,0-5.67,0Z"/><path class="cls-2" d="M415.67,280.1v-6.24s0-.02,0-.04l-165.48,50.29h.14c1.88,0,3.77,0,5.67,0s3.79,0,5.67,0h23.95c72.29-.19,127.42-3.37,130.05-44.01Z"/></g></g><g id="text"><path class="cls-1" d="M653.09,328.35V183.65h27.24l68.17,87.47,66.67-87.47h26.97v144.7h-31.21v-89.39c0-1.73,.11-3.92,.34-6.57,.23-2.65,.52-5.61,.89-8.9-1.83,3.74-3.42,6.82-4.79,9.24-1.37,2.42-2.6,4.4-3.7,5.96l-54.35,72.28h-6.71l-54.48-72.55c-2.01-2.74-3.72-5.31-5.13-7.73-1.42-2.42-2.58-4.77-3.49-7.05,.27,3.01,.48,5.75,.62,8.21s.21,4.84,.21,7.12v89.39h-27.24Z"/><path class="cls-1" d="M884.3,328.35l70.36-118.55h27.79l71.46,118.55h-32.44l-14.92-26.01h-78.44l-14.92,26.01h-28.88Zm56.13-47.64h54.35l-27.65-49.42-26.69,49.42Z"/><path class="cls-1" d="M1154.12,231.02v97.33h-28.88v-97.33h-57.22v-21.22h143.46v21.22h-57.36Z"/><path class="cls-1" d="M1319.49,231.02v97.33h-28.88v-97.33h-57.22v-21.22h143.46v21.22h-57.36Z"/><path class="cls-1" d="M1396.15,328.35l70.36-118.55h27.79l71.46,118.55h-32.44l-14.92-26.01h-78.44l-14.92,26.01h-28.88Zm56.13-47.64h54.35l-27.65-49.42-26.69,49.42Z"/><path class="cls-1" d="M1595.33,328.35v-118.55h106.78c9.76,0,16.84,1.8,21.22,5.41,4.38,3.61,6.57,9.47,6.57,17.59v27.93c0,8.03-2.19,13.83-6.57,17.38-4.38,3.56-11.45,5.34-21.22,5.34h-16.29l56.4,44.9h-41.48l-49.69-44.9h-27.24v44.9h-28.47Zm94.46-98.15h-65.98v32.85h65.98c5.02,0,8.46-.73,10.33-2.19,1.87-1.46,2.81-3.92,2.81-7.39v-13.69c0-3.47-.94-5.93-2.81-7.39-1.87-1.46-5.32-2.19-10.33-2.19Z"/></g></svg>