<?xml version="1.0" encoding="UTF-8"?><svg id="base" xmlns="http://www.w3.org/2000/svg" width="512" height="512" viewBox="0 0 512 512"><defs><style>.cls-1{fill:#fff;}.cls-2{fill:#dcdddd;}.cls-3{fill:#002f55;}</style></defs><rect id="icon-base" class="cls-3" width="512" height="512" rx="112" ry="112"/><g id="icon"><path class="cls-1" d="M415.78,277.01c0-1.06-.04-2.11-.11-3.15v6.24c.07-1.01,.11-2.03,.11-3.09Z"/><path class="cls-1" d="M285.62,324.11h-23.95c8.15,0,16.15,.02,23.95,0Z"/><path class="cls-1" d="M415.67,273.82c-3.01-47.75-73.34-85.95-159.67-85.95s-159.78,39.91-159.78,89.14,68.49,47.17,154.11,47.1h-.14l165.48-50.29Z"/><path class="cls-1" d="M415.67,273.82h0s0,.02,0,.04v-.04Z"/><path class="cls-1" d="M250.33,324.11h11.34c-1.88,0-3.77,0-5.67,0s-3.79,0-5.67,0Z"/><path class="cls-2" d="M415.67,280.1v-6.24s0-.02,0-.04l-165.48,50.29h.14c1.88,0,3.77,0,5.67,0s3.79,0,5.67,0h23.95c72.29-.19,127.42-3.37,130.05-44.01Z"/></g></svg>