<?xml version="1.0" standalone="no"?>
<!DOCTYPE svg PUBLIC "-//W3C//DTD SVG 20010904//EN"
 "http://www.w3.org/TR/2001/REC-SVG-20010904/DTD/svg10.dtd">
<svg version="1.0" xmlns="http://www.w3.org/2000/svg"
 width="700.000000pt" height="700.000000pt" viewBox="0 0 700.000000 700.000000"
 preserveAspectRatio="xMidYMid meet">
<metadata>
Created by potrace 1.14, written by Peter Selinger 2001-2017
</metadata>
<g transform="translate(0.000000,700.000000) scale(0.100000,-0.100000)"
fill="#000000" stroke="none">
<path d="M1385 6993 c-288 -36 -536 -129 -748 -280 -105 -75 -277 -246 -350
-350 -123 -174 -224 -410 -264 -623 -17 -90 -18 -213 -18 -2240 0 -2410 -6
-2208 75 -2453 176 -527 609 -907 1163 -1019 l112 -23 2145 0 2145 0 112 23
c217 44 433 136 606 259 105 74 276 245 350 350 123 173 215 389 259 606 l23
112 0 2145 0 2145 -23 112 c-44 217 -136 433 -259 606 -74 105 -245 276 -350
350 -171 121 -406 222 -618 264 -85 17 -216 18 -2210 19 -1166 1 -2133 -1
-2150 -3z m2600 -2592 c859 -116 1487 -478 1658 -955 35 -98 48 -267 27 -357
-35 -149 -135 -267 -292 -343 -209 -101 -456 -144 -957 -167 -301 -14 -1967
-6 -2126 10 -615 61 -872 186 -957 464 -30 99 -23 269 16 382 95 277 380 542
774 720 284 129 644 222 977 255 61 5 126 12 145 14 19 2 159 3 310 1 205 -3
313 -9 425 -24z"/>
</g>
</svg>
